<?xml version="1.0" standalone="no"?>
<!DOCTYPE svg PUBLIC "-//W3C//DTD SVG 20010904//EN"
 "http://www.w3.org/TR/2001/REC-SVG-20010904/DTD/svg10.dtd">
<svg version="1.0" xmlns="http://www.w3.org/2000/svg"
 width="192.000000pt" height="192.000000pt" viewBox="0 0 192.000000 192.000000"
 preserveAspectRatio="xMidYMid meet">

<g transform="translate(0.000000,192.000000) scale(0.100000,-0.100000)"
fill="#000000" stroke="none">
<path d="M854 1891 c-92 -67 -179 -179 -244 -313 l-41 -83 29 -12 c30 -12 157
-37 250 -48 l52 -7 0 246 c0 135 -2 246 -3 246 -2 0 -22 -13 -43 -29z"/>
<path d="M1020 1674 l0 -247 68 7 c69 7 235 41 252 51 12 7 -27 97 -82 189
-44 74 -158 200 -207 229 l-31 18 0 -247z"/>
<path d="M531 1814 c-86 -43 -241 -154 -241 -173 0 -13 143 -101 164 -101 3 0
25 42 49 93 24 50 65 122 90 160 26 37 43 67 38 67 -5 0 -50 -21 -100 -46z"/>
<path d="M1326 1793 c26 -37 67 -110 92 -160 25 -51 50 -93 56 -93 17 0 149
83 153 97 9 28 -233 190 -325 218 -20 6 -17 -2 24 -62z"/>
<path d="M164 1493 c-79 -122 -139 -282 -150 -403 l-7 -70 175 0 175 0 7 87
c6 78 37 259 52 296 3 10 -9 22 -40 36 -24 12 -72 40 -106 62 -33 21 -64 39
-68 39 -4 0 -21 -21 -38 -47z"/>
<path d="M1655 1505 c-27 -19 -73 -47 -102 -62 -33 -18 -51 -33 -48 -41 14
-36 45 -218 51 -295 l7 -87 175 0 175 0 -7 70 c-7 81 -46 211 -89 295 -40 81
-89 155 -102 154 -5 0 -32 -16 -60 -34z"/>
<path d="M521 1324 c-15 -60 -41 -230 -41 -271 l0 -33 210 0 210 0 0 145 0
145 -37 0 c-52 0 -207 26 -268 45 -27 8 -53 15 -56 15 -4 0 -12 -21 -18 -46z"/>
<path d="M1290 1350 c-36 -10 -111 -24 -167 -30 l-103 -13 0 -143 0 -144 210
0 210 0 0 33 c0 41 -26 211 -41 271 -13 52 -12 52 -109 26z"/>
<path d="M14 830 c3 -38 18 -106 32 -152 26 -84 99 -233 135 -277 18 -23 22
-24 42 -11 48 31 179 109 187 112 5 2 3 27 -5 60 -20 73 -45 241 -45 296 l0
42 -176 0 -177 0 7 -70z"/>
<path d="M484 821 c7 -78 40 -259 50 -268 2 -3 41 4 85 15 44 12 125 26 180
33 l101 12 0 144 0 143 -211 0 -212 0 7 -79z"/>
<path d="M1020 755 l0 -145 38 0 c51 0 205 -26 270 -45 30 -9 56 -14 59 -12 9
9 42 191 49 268 l7 79 -212 0 -211 0 0 -145z"/>
<path d="M1556 813 c-6 -78 -37 -259 -52 -296 -3 -10 9 -22 40 -36 24 -12 72
-40 106 -62 33 -21 64 -39 68 -39 10 0 63 83 99 155 43 84 82 214 89 295 l7
70 -175 0 -175 0 -7 -87z"/>
<path d="M765 474 c-49 -8 -113 -21 -142 -29 -60 -18 -60 -12 -2 -127 59 -118
184 -268 257 -307 l22 -12 0 246 0 245 -22 -1 c-13 -1 -63 -7 -113 -15z"/>
<path d="M1020 245 c0 -148 4 -245 9 -245 21 0 131 102 179 166 46 61 106 170
131 235 9 26 9 27 -62 48 -69 20 -186 40 -234 41 l-23 0 0 -245z"/>
<path d="M375 344 c-96 -57 -97 -59 -50 -100 67 -58 153 -115 232 -151 41 -19
76 -33 78 -31 2 2 -16 32 -40 68 -25 35 -65 105 -91 157 -25 51 -51 93 -57 93
-7 -1 -39 -17 -72 -36z"/>
<path d="M1418 288 c-25 -51 -66 -124 -92 -161 -41 -60 -44 -68 -24 -62 74 23
218 111 296 181 l44 39 -79 48 c-43 26 -83 47 -89 47 -6 0 -31 -42 -56 -92z"/>
</g>
</svg>
